<svg width="34" height="34" viewBox="0 0 34 34" fill="none" xmlns="http://www.w3.org/2000/svg">
<path d="M13.1699 25.3333L11.9199 30.3333L10.2533 32H23.5866L21.9199 30.3333L20.6699 25.3333H13.1699ZM1.91992 18.6667H31.9199H1.91992ZM5.25326 25.3333H28.5866C29.4706 25.3333 30.3185 24.9821 30.9436 24.357C31.5687 23.7319 31.9199 22.8841 31.9199 22V5.33333C31.9199 4.44928 31.5687 3.60143 30.9436 2.97631C30.3185 2.35119 29.4706 2 28.5866 2H5.25326C4.3692 2 3.52135 2.35119 2.89623 2.97631C2.27111 3.60143 1.91992 4.44928 1.91992 5.33333V22C1.91992 22.8841 2.27111 23.7319 2.89623 24.357C3.52135 24.9821 4.3692 25.3333 5.25326 25.3333Z" stroke="white" stroke-width="3.5" stroke-linecap="round" stroke-linejoin="round"/>
</svg>
