<svg width="100" height="100" viewBox="0 0 100 100" fill="none" xmlns="http://www.w3.org/2000/svg">
<path opacity="0.5" d="M79.1673 12.5H20.834C13.9304 12.5 8.33398 18.0964 8.33398 25V62.5C8.33398 69.4036 13.9304 75 20.834 75H79.1673C86.0709 75 91.6673 69.4036 91.6673 62.5V25C91.6673 18.0964 86.0709 12.5 79.1673 12.5Z" fill="#595260"/>
<path d="M66.6666 87.4998H33.3333C32.579 87.4999 31.8387 87.2953 31.1916 86.9076C30.5445 86.52 30.0147 85.964 29.6588 85.2988C29.303 84.6337 29.1343 83.8845 29.1709 83.131C29.2075 82.3775 29.448 81.6482 29.8666 81.0207L46.5333 56.0206C46.9359 55.481 47.459 55.0427 48.0608 54.7408C48.6626 54.4389 49.3267 54.2817 50 54.2817C50.6733 54.2817 51.3373 54.4389 51.9391 54.7408C52.541 55.0427 53.064 55.481 53.4666 56.0206L70.1333 81.0207C70.552 81.6482 70.7924 82.3775 70.829 83.131C70.8656 83.8845 70.697 84.6337 70.3411 85.2988C69.9852 85.964 69.4555 86.52 68.8083 86.9076C68.1612 87.2953 67.421 87.4999 66.6666 87.4998Z" fill="#595260"/>
</svg>
