<svg width="100" height="100" viewBox="0 0 100 100" fill="none" xmlns="http://www.w3.org/2000/svg">
<path d="M67.5 19.5834L70.4167 14.5834C71.25 12.5001 70.8333 10 68.75 8.75005C66.6667 7.91672 64.1667 8.33338 62.9167 10.4167L60.4167 15C62.9167 15.8334 65.4167 17.5 67.5 19.5834ZM32.5 19.5834C34.5833 17.5 36.6667 16.25 39.5833 15L37.0833 10.4167C35.8333 8.33338 33.3333 7.91672 31.25 8.75005C29.1667 9.58338 28.75 12.5001 29.5833 14.5834L32.5 19.5834ZM25 37.5H75V45.8334H25V37.5Z" fill="#595260"/>
<path opacity="0.5" d="M50.0007 12.5C36.2507 12.5 25.0007 23.75 25.0007 37.5H75.0007C75.0007 23.75 63.7507 12.5 50.0007 12.5ZM87.5007 37.5C85.0007 37.5 83.334 39.1667 83.334 41.6667V58.3333C83.334 60.8333 85.0007 62.5 87.5007 62.5C90.0007 62.5 91.6673 60.8333 91.6673 58.3333V41.6667C91.6673 39.1667 90.0007 37.5 87.5007 37.5ZM12.5007 37.5C10.0007 37.5 8.33398 39.1667 8.33398 41.6667V58.3333C8.33398 60.8333 10.0007 62.5 12.5007 62.5C15.0007 62.5 16.6673 60.8333 16.6673 58.3333V41.6667C16.6673 39.1667 15.0007 37.5 12.5007 37.5ZM25.0007 70.8333C25.0007 73.3333 26.6673 75 29.1673 75H37.5007V87.5C37.5007 90 39.1673 91.6667 41.6673 91.6667C44.1673 91.6667 45.834 90 45.834 87.5V75H54.1673V87.5C54.1673 90 55.834 91.6667 58.334 91.6667C60.834 91.6667 62.5007 90 62.5007 87.5V75H70.834C73.334 75 75.0007 73.3333 75.0007 70.8333V45.8333H25.0007V70.8333Z" fill="#595260"/>
</svg>
