<svg width="101" height="100" viewBox="0 0 101 100" fill="none" xmlns="http://www.w3.org/2000/svg">
<path opacity="0.25" d="M92.0013 45.8335H42.0013V8.3335H33.668V91.6668H42.0013V54.1668H92.0013V45.8335Z" fill="#595260"/>
<path d="M12.8346 8.3335H33.668V91.6668H12.8346C11.7296 91.6668 10.6698 91.2279 9.88836 90.4464C9.10696 89.665 8.66797 88.6052 8.66797 87.5002V12.5002C8.66797 11.3951 9.10696 10.3353 9.88836 9.55388C10.6698 8.77248 11.7296 8.3335 12.8346 8.3335Z" fill="#595260"/>
<path opacity="0.5" d="M42 8.3335H87.8333C88.9384 8.3335 89.9982 8.77248 90.7796 9.55388C91.561 10.3353 92 11.3951 92 12.5002V45.8335H42V8.3335ZM42 54.1668H92V87.5002C92 88.6052 91.561 89.665 90.7796 90.4464C89.9982 91.2279 88.9384 91.6668 87.8333 91.6668H42V54.1668Z" fill="#595260"/>
</svg>
