<svg width="24" height="38" viewBox="0 0 24 38" fill="none" xmlns="http://www.w3.org/2000/svg">
<path d="M3.58724 37.3332C2.67057 37.3332 1.88613 37.0071 1.23391 36.3548C0.580573 35.7015 0.253906 34.9165 0.253906 33.9998V3.99984C0.253906 3.08317 0.580573 2.29817 1.23391 1.64484C1.88613 0.992615 2.67057 0.666504 3.58724 0.666504H20.2539C21.1706 0.666504 21.9556 0.992615 22.6089 1.64484C23.2611 2.29817 23.5872 3.08317 23.5872 3.99984V33.9998C23.5872 34.9165 23.2611 35.7015 22.6089 36.3548C21.9556 37.0071 21.1706 37.3332 20.2539 37.3332H3.58724ZM3.58724 28.9998H20.2539V8.99984H3.58724V28.9998ZM3.58724 32.3332V33.9998H20.2539V32.3332H3.58724ZM3.58724 5.6665H20.2539V3.99984H3.58724V5.6665ZM3.58724 3.99984V5.6665V3.99984ZM3.58724 33.9998V32.3332V33.9998Z" fill="white"/>
</svg>
